<svg width="104" height="77" viewBox="0 0 104 77" fill="none" xmlns="http://www.w3.org/2000/svg">
<g id="CDf white" clip-path="url(#clip0_0_1)">
<g id="Clip path group">
<mask id="mask0_0_1" style="mask-type:luminance" maskUnits="userSpaceOnUse" x="0" y="0" width="104" height="77">
<g id="clip0_68_2">
<path id="Vector" d="M104 0H0V77H104V0Z" fill="white"/>
</g>
</mask>
<g mask="url(#mask0_0_1)">
<g id="Group">
<path id="Vector_2" d="M72.7908 8.55557C72.8565 8.6612 72.7812 8.65509 72.4625 8.52938C72.0992 8.3862 72.1737 8.28406 72.5939 8.34866C72.9913 8.4089 73.1357 8.46826 72.888 8.46826C72.8048 8.46826 72.7611 8.50755 72.7908 8.55557ZM85.9134 51.5603C85.9659 51.6965 85.9528 51.6965 85.5501 51.5647C85.3934 51.5141 85.2656 51.4407 85.2656 51.4023C85.2656 51.2434 85.846 51.3848 85.9134 51.5603ZM72.3339 36.4833C72.6648 36.6946 72.4871 36.7129 72.0467 36.513C71.8165 36.4091 71.7788 36.3655 71.8961 36.3393C71.9819 36.3192 72.1789 36.3847 72.3339 36.4833ZM67.013 46.881C66.9833 46.929 66.9316 46.963 66.8984 46.956C66.8651 46.9499 66.7495 46.9272 66.641 46.9063C66.5324 46.8862 66.444 46.8277 66.444 46.7771C66.444 46.7256 66.5289 46.709 66.641 46.7387C66.7495 46.7675 66.8896 46.7919 66.9526 46.7928C67.0157 46.7928 67.0428 46.8329 67.013 46.881ZM87.4252 47.3611C87.4252 47.5156 87.4042 47.5148 87.0602 47.3576L86.7976 47.238L87.111 47.2345C87.3333 47.231 87.4252 47.2686 87.4252 47.3611ZM53.3337 53.5456C53.3941 53.5691 53.4046 53.5901 53.3565 53.5901C53.205 53.5918 52.875 53.4059 52.875 53.3186C52.875 53.2732 52.9372 53.2592 53.0133 53.288C53.0895 53.3177 53.1902 53.3413 53.2374 53.3413C53.2847 53.3413 53.3005 53.3771 53.2733 53.4207C53.2462 53.4652 53.2733 53.5211 53.3337 53.5456ZM95.5955 14.1533C95.5955 14.2354 95.3618 14.2459 95.1788 14.1726C95.1184 14.1481 95.0878 14.0975 95.1114 14.0599C95.1666 13.9709 95.5955 14.0529 95.5955 14.1533ZM98.6035 20.4722C98.6315 20.5438 98.6455 20.5997 98.635 20.5962C98.6245 20.5918 98.4976 20.5351 98.3531 20.4687L98.0905 20.3491L98.3216 20.3456C98.4494 20.343 98.5755 20.3998 98.6035 20.4722ZM70.2959 21.8254C70.2959 21.8734 70.2372 21.9127 70.1646 21.9127C70.0919 21.9127 70.0333 21.8734 70.0333 21.8254C70.0333 21.7774 70.0919 21.7381 70.1646 21.7381C70.2372 21.7381 70.2959 21.7774 70.2959 21.8254ZM94.5013 35.4445C94.4715 35.4925 94.4102 35.5318 94.3647 35.5318C94.3192 35.5318 94.2824 35.4925 94.2824 35.4445C94.2824 35.3964 94.3437 35.3572 94.419 35.3572C94.4943 35.3572 94.531 35.3964 94.5013 35.4445ZM59.0905 50.4603C59.0905 50.5083 59.0537 50.5476 59.0082 50.5476C58.9627 50.5476 58.9014 50.5083 58.8716 50.4603C58.8419 50.4123 58.8786 50.373 58.9539 50.373C59.0292 50.373 59.0905 50.4123 59.0905 50.4603Z" fill="white"/>
<g id="Vector_3">
<path fill-rule="evenodd" clip-rule="evenodd" d="M64.9844 1.22144C65.5711 1.22069 68.4184 1.43947 69.5518 1.573C71.286 1.77642 73.0038 1.86352 73.2305 1.7605C73.5298 1.62446 73.7642 1.63226 74.3067 1.7937C75.1211 2.03468 75.3513 2.56747 74.8555 3.06226C74.6227 3.29443 74.5453 3.31713 74.002 3.31714C73.6728 3.31714 72.8518 3.25885 72.1778 3.18726C71.5038 3.11569 70.8953 3.05727 70.8252 3.0564C70.5685 3.05477 70.8784 3.20708 71.5215 3.3982C73.1649 3.88603 74.2119 4.23736 74.4532 4.38062C74.8024 4.58924 74.9547 5.02323 74.792 5.34448C74.7254 5.47543 74.5949 5.62187 74.503 5.67163C74.404 5.72401 73.6561 5.76245 72.709 5.76245C71.8146 5.76246 71.084 5.79348 71.084 5.83277C71.0842 5.87205 71.2903 5.95539 71.543 6.01734C71.796 6.0802 72.3781 6.247 72.835 6.38843C73.292 6.52984 74.0015 6.74811 74.4102 6.87378C75.6863 7.26482 75.9863 7.47304 75.9864 7.97046C75.9864 8.08745 75.9001 8.29089 75.7959 8.42359C75.6059 8.66453 75.6045 8.66455 74.7676 8.61304C74.3063 8.58512 73.6535 8.53509 73.3165 8.50366C72.4962 8.42771 72.6394 8.5392 73.8848 8.94507C75.1962 9.37284 75.4976 9.53086 75.6368 9.86695C75.7321 10.0974 75.7288 10.1837 75.6133 10.4246C75.3918 10.889 75.1003 10.9573 73.8555 10.8386C72.1756 10.6771 71.8559 10.7193 72.7032 10.989C73.7248 11.3138 73.9574 11.4445 74.087 11.7683C74.2374 12.1453 74.1417 12.5216 73.8575 12.6736C73.7297 12.7425 73.2345 12.7549 72.2295 12.7156C71.4364 12.6841 70.8242 12.6911 70.8692 12.7312C70.9147 12.7705 71.3467 12.9121 71.8282 13.0457C72.3094 13.1791 72.8009 13.321 72.9219 13.3621C73.0427 13.4023 73.7319 13.6171 74.4541 13.8406C76.3774 14.4351 76.5284 14.4879 76.834 14.6765C77.274 14.9482 77.3262 15.6876 76.9219 15.9041C76.7041 16.0192 75.195 16.0097 74.4483 15.8875L74.4346 15.8855C73.9744 15.8104 73.797 15.7809 73.7637 15.8376C73.7427 15.8725 73.7782 15.9418 73.836 16.0544L73.8389 16.0593C74.0069 16.3822 74.0072 16.5308 73.8418 16.8494C73.6195 17.2779 73.0756 17.3212 71.6094 17.0271C71.3933 16.9834 70.8407 16.8808 70.3838 16.7996C69.9268 16.7176 69.4041 16.5975 69.2237 16.532C68.8692 16.4045 67.9327 16.2717 67.9327 16.3494C67.9331 16.3998 68.0491 16.4372 70.7774 17.2459C72.2738 17.6901 73.4868 18.1733 73.7754 18.4421C74.2341 18.8699 73.887 19.7302 73.2549 19.7302C72.9783 19.7302 72.0052 19.5666 71.1709 19.3806C70.9548 19.3318 70.5999 19.2572 70.3838 19.2126C70.1676 19.1691 69.7141 19.0708 69.377 18.9949C68.6787 18.8377 68.4715 18.8217 68.5928 18.9334C68.6699 19.0049 68.9652 19.102 70.4707 19.5525C72.1909 20.0675 74.9671 21.0115 75.461 21.2507C76.1289 21.5746 76.3816 21.932 76.2354 22.3484C76.0709 22.8198 75.8903 22.9013 75.1348 22.8455C74.5314 22.8008 72.8998 22.5005 71.9151 22.2527C70.6872 21.9429 70.8617 22.1223 72.2579 22.6033C73.3687 22.9866 73.8345 23.2268 73.9737 23.4861C74.1294 23.7758 74.0733 24.1772 73.8457 24.405C73.5612 24.6879 73.09 24.6874 71.6788 24.4011C69.8529 24.031 69.9143 24.1 72.0606 24.8289C73.7142 25.3911 74.4839 25.7283 74.8262 26.0408C75.1105 26.301 75.094 26.7943 74.792 27.0955C74.5847 27.303 74.4966 27.3259 73.9112 27.3259C73.2496 27.326 73.1186 27.4348 73.6456 27.5466C74.0664 27.6359 76.2456 28.3668 76.5528 28.5222C77.0185 28.757 77.1247 28.8987 77.1221 29.281C77.1203 29.4783 77.0623 29.7136 76.9932 29.8044C76.8232 30.0286 76.2188 30.0767 75.2403 29.9431C74.8078 29.8846 74.2962 29.8161 74.1045 29.7917L73.7549 29.7468L74.0499 30.0222C74.3089 30.2632 74.3388 30.3359 74.295 30.6091C74.267 30.7801 74.1977 30.9755 74.1416 31.0427C74.0052 31.2067 73.4445 31.3512 73.1319 31.3025C72.9927 31.2806 72.248 31.219 71.4776 31.1667C70.7079 31.1144 69.9653 31.0529 69.8262 31.031C69.6112 30.9979 69.5894 31.0115 69.6827 31.1228C69.7421 31.1952 69.8649 31.2535 69.9541 31.2537C70.0434 31.2537 70.4038 31.3462 70.754 31.4597C71.104 31.5732 71.8036 31.7914 72.3096 31.9441C75.5686 32.9297 76.8259 33.3818 76.9502 33.614C77.1023 33.8969 77.0517 34.3821 76.8497 34.5837C76.6764 34.7566 76.603 34.7662 75.8204 34.7156C74.7489 34.6457 73.4429 34.4588 72.6377 34.2615C72.4837 34.2231 72.3965 34.2377 72.3965 34.2996C72.3968 34.3534 72.4459 34.397 72.5059 34.3972C72.66 34.3981 75.0058 35.1585 75.3555 35.322C75.5183 35.398 75.7042 35.5814 75.7813 35.7419C75.9056 36.0021 75.9047 36.0525 75.7725 36.3074C75.5415 36.7524 75.318 36.7931 73.9727 36.6326C73.3236 36.5549 72.6938 36.4946 72.5723 36.4988C72.3728 36.5058 72.3804 36.5182 72.6592 36.6404C72.8273 36.7137 73.2695 36.8654 73.6407 36.9763C74.6824 37.2888 75.082 37.4919 75.2344 37.7869C75.3534 38.0164 75.3547 38.0862 75.2461 38.3455C75.0204 38.8849 74.6057 38.9438 72.6163 38.7195C70.6248 38.4952 70.4396 38.5628 71.9151 38.9783C73.1924 39.338 75.7257 40.1607 76.0303 40.3152C76.3899 40.4967 76.5053 40.6714 76.5088 41.0388C76.5105 41.2544 76.4495 41.409 76.3096 41.5408C76.061 41.773 75.4272 41.7896 74.1036 41.5984C72.6639 41.3899 72.4112 41.4666 73.5352 41.7712C74.5978 42.0584 74.9388 42.3192 74.9327 42.8377C74.929 43.1673 74.7544 43.3773 74.3985 43.4812C74.0983 43.5685 72.3258 43.4742 71.0118 43.2996L71.0049 43.2986C70.4185 43.2209 70.203 43.1931 70.1768 43.2498C70.1625 43.2831 70.2115 43.3449 70.2881 43.4421L70.2901 43.4441C70.5201 43.7365 70.5259 44.207 70.3018 44.4304C70.0541 44.6774 69.5491 44.7177 67.8907 44.6209C67.073 44.5738 66.3886 44.5496 66.3711 44.5671C66.3563 44.5859 66.5121 44.6478 66.7198 44.7068C67.3781 44.8918 68.8384 45.3728 69.1651 45.5134C69.6692 45.7308 69.8603 46.1037 69.6846 46.5261C69.5209 46.9216 69.2654 46.9823 68.0293 46.9168C67.4228 46.8845 66.9554 46.8891 66.9913 46.9275C67.062 47.0028 67.9592 47.3364 68.6768 47.5554C68.9174 47.6287 69.1927 47.7201 69.2891 47.7576C69.3854 47.7952 69.7198 47.923 70.0332 48.0418C70.7318 48.3071 70.9666 48.6118 70.8116 49.0535C70.7468 49.2393 70.6015 49.3896 70.3741 49.5056C70.1868 49.6008 70.0332 49.7354 70.0332 49.8035C70.033 50.0645 69.8252 50.3656 69.5733 50.4695C69.3608 50.5574 69.1319 50.5512 68.3379 50.4343C67.5335 50.3156 65.9531 50.0044 65.0655 49.7888C64.7346 49.7084 64.8455 49.8494 65.2579 50.031C65.7339 50.2413 66.0057 50.5685 66.0059 50.9324C66.0059 51.3059 65.7956 51.5775 65.4561 51.6414C65.0088 51.7252 61.6413 51.1183 60.3282 50.7175C59.7418 50.5378 59.3102 50.4956 59.3907 50.6248C59.4171 50.6666 59.5275 50.7214 59.6368 50.7459C60.099 50.848 61.0517 51.2523 61.3292 51.4636C61.5785 51.653 61.629 51.7485 61.629 52.0252C61.6289 52.2292 61.5593 52.4463 61.4483 52.5877C61.2943 52.7832 61.1986 52.8171 60.8135 52.8171C60.5641 52.8171 60.0841 52.7576 59.7471 52.6843C59.41 52.6101 58.9565 52.5142 58.7403 52.4714C57.8571 52.2978 57.1637 52.125 57 52.0369C56.797 51.9287 56.4642 51.914 56.4639 52.0125C56.4639 52.0501 56.6458 52.1353 56.8672 52.2C57.4648 52.3762 57.924 52.6168 58.0782 52.8367C58.2646 53.1011 58.2499 53.5401 58.0469 53.7898C57.8963 53.9749 57.8142 53.9954 57.2374 53.9841C56.8846 53.9771 55.985 53.8621 55.2383 53.7302C54.4917 53.5985 53.7239 53.4763 53.5313 53.4597L53.2667 53.4363C53.2684 53.4312 53.2709 53.4258 53.2735 53.4207C53.3005 53.377 53.2845 53.3416 53.2374 53.3416C53.19 53.3415 53.0897 53.3175 53.0137 53.2878C52.9375 53.259 52.875 53.2737 52.875 53.3191C52.876 53.4065 53.2053 53.5922 53.3565 53.5906C53.4046 53.5906 53.3943 53.5692 53.334 53.5457C53.2946 53.5292 53.269 53.499 53.2637 53.4675L53.7159 53.6814C54.009 53.8202 54.2752 53.9997 54.3067 54.0808C54.4257 54.3907 54.3612 54.7477 54.1485 54.9607C53.9296 55.178 53.6367 55.2305 53.4004 55.0925C53.2629 55.0131 51.7836 54.5295 50.7305 54.2205C49.3762 53.8224 47.6511 53.3207 47.4034 53.2517C44.9793 52.5795 42.2848 51.746 41.7911 51.5164C41.1381 51.2117 40.9805 50.9183 41.2168 50.446L41.3633 50.155L42.1446 50.1296C42.8781 50.1053 43.7468 50.2076 45.2383 50.4939C45.5996 50.5627 45.8947 50.5815 45.9219 50.5369C45.9802 50.4438 45.9266 50.4227 45.084 50.2039C44.7233 50.1105 44.013 49.9105 43.5079 49.7595C43.0027 49.6093 41.9976 49.317 41.2754 49.1101C39.1736 48.5077 37.1111 47.8429 36.6104 47.6072C36.0407 47.3383 35.8517 47.0773 35.92 46.6531C36.0005 46.1582 36.1003 46.0955 36.8077 46.0955C37.1543 46.0955 37.4611 46.0737 37.4874 46.0466C37.5139 46.0197 37.289 45.6364 36.9874 45.1951C36.0667 43.8476 34.8426 41.6058 34.8418 41.2644C34.8418 41.2041 34.8064 41.1165 34.7627 41.071C34.6604 40.9629 34.2015 39.6055 33.9678 38.7185C33.4522 36.7612 33.2686 35.3387 33.2686 33.3054C33.2686 31.3336 33.3733 30.4596 33.8809 28.199C34.3038 26.3124 35.4064 23.7834 36.5821 21.9998C39.274 17.9178 43.1415 14.9186 47.67 13.4031C51.3659 12.1652 55.4847 12.0272 59.4844 13.0076C59.8695 13.1019 60.5791 13.2593 61.0606 13.3562C61.542 13.4539 62.0936 13.5729 62.2862 13.6209C62.479 13.6689 63.0112 13.7856 63.4678 13.8816C63.9248 13.9776 64.5548 14.1144 64.8682 14.1843C65.1812 14.254 65.4655 14.3132 65.502 14.3142C65.537 14.3159 65.6235 14.1798 65.6944 14.0115C65.7741 13.8221 65.9161 13.6697 66.0674 13.6121C66.3239 13.5143 67.6135 13.5724 68.4014 13.7156C68.8547 13.7984 69.1718 13.7167 68.8047 13.6121C68.0895 13.4086 65.6026 12.6139 65.087 12.4236C64.0926 12.0561 63.7312 11.4882 64.1827 11.0046C64.3692 10.8046 64.3949 10.8019 65.7159 10.8464C66.4534 10.8709 67.0733 10.8638 67.0967 10.8308C67.1177 10.7976 66.654 10.6207 66.0674 10.4382C64.7142 10.0177 64.2789 9.81384 64.129 9.52515C63.9688 9.21698 64.0511 8.85333 64.3321 8.63159C64.5437 8.46326 64.6333 8.45335 65.4375 8.50659C65.9191 8.53802 66.7243 8.62133 67.2276 8.69116C68.193 8.8256 68.5887 8.74536 67.8711 8.5603C67.64 8.50094 67.3523 8.41979 67.2315 8.37964C67.1101 8.34018 66.579 8.1816 66.0499 8.02808C63.9151 7.40831 63.4239 7.07931 63.6426 6.41675C63.7932 5.96016 64.07 5.90989 65.5293 6.06616C66.2 6.13854 66.8331 6.22075 66.9375 6.24878C67.0399 6.27759 67.1501 6.26047 67.1817 6.2107C67.2135 6.15744 67.0801 6.07672 66.8624 6.01831C65.9163 5.76167 65.6387 5.53318 65.6387 5.00855C65.6387 4.40885 65.7753 4.365 67.6641 4.36499C68.5658 4.36499 69.33 4.33772 69.3633 4.30542C69.4298 4.23909 69.3179 4.19984 67.4073 3.62378C65.4928 3.04671 64.5061 2.71304 64.2793 2.56812C63.9555 2.3595 63.8052 1.98385 63.918 1.66089C64.0371 1.32128 64.2761 1.22231 64.9844 1.22144ZM58.9542 50.3728C58.8789 50.3728 58.8423 50.4127 58.8721 50.4607C58.9018 50.5084 58.9625 50.5474 59.0079 50.5476C59.0534 50.5476 59.0907 50.5086 59.0909 50.4607C59.0909 50.4127 59.0293 50.3728 58.9542 50.3728ZM66.6407 46.739C66.5289 46.7095 66.4445 46.7256 66.4444 46.7771C66.4444 46.8276 66.5324 46.8858 66.6407 46.906C66.7493 46.9269 66.8652 46.9497 66.8985 46.9558C66.9318 46.9628 66.9829 46.9287 67.0127 46.8806C67.0423 46.8328 67.0158 46.7929 66.9532 46.7927C66.8901 46.7918 66.7493 46.7678 66.6407 46.739ZM55.2168 22.3455C54.2032 22.239 52.9751 22.3214 51.7813 22.5779C51.2254 22.6975 51.0123 22.7592 50.4678 22.9539C49.8664 23.1696 48.1826 24.0758 47.6661 24.4626C46.3092 25.4788 45.189 26.8088 44.4415 28.2937C43.2142 30.7284 42.9286 33.1902 43.5518 35.9636C43.9991 37.9574 45.3517 40.1837 46.9571 41.5701C48.4732 42.8778 49.9239 43.6251 51.8243 44.073C52.234 44.1699 52.6479 44.2672 52.7442 44.2908C53.2006 44.4006 55.8459 44.296 56.6993 44.1345C57.5079 43.981 57.6759 43.9757 58.5372 44.0779C59.0579 44.1399 59.6322 44.222 59.8135 44.2605C60.2398 44.3521 60.2842 44.2603 59.962 43.9539C59.641 43.6466 59.6116 43.2184 59.8917 42.9392C60.0762 42.7552 60.1179 42.7513 61.9092 42.8054C62.9137 42.8351 63.7159 42.8278 63.6915 42.7869C63.667 42.7467 63.5361 42.6918 63.4014 42.6648C62.9839 42.581 62.6799 42.2272 62.6797 41.824C62.6797 41.5437 62.7257 41.4429 62.9034 41.3259C63.1002 41.1978 63.3018 41.1876 64.544 41.24C65.324 41.2723 66.1835 41.3431 66.4522 41.3972C66.7218 41.4522 67.0165 41.4682 67.1084 41.4334C67.2292 41.3863 66.8916 41.2391 65.8868 40.9031C64.4187 40.4125 64.0858 40.2352 63.9571 39.8738C63.8541 39.584 64.0334 39.1385 64.2872 39.0564C64.5455 38.9735 65.4483 39.0089 66.4707 39.1433C66.9648 39.2078 67.3475 39.2226 67.376 39.1775C67.3786 39.174 67.3812 39.1693 67.3838 39.1658C67.3959 39.1468 67.4052 39.1308 67.4043 39.1169C67.3993 39.063 67.2449 39.0212 66.5313 38.8113C63.8124 38.0116 63.3799 37.7866 63.3799 37.1755C63.38 36.645 63.599 36.492 64.3584 36.4919C64.7042 36.4919 65.3453 36.5332 65.7813 36.5847C67.5745 36.7925 67.7678 36.8083 67.8038 36.7507C67.8239 36.7175 67.4374 36.5633 66.9454 36.407C65.3443 35.9006 64.2167 35.5213 63.9444 35.3982C63.5428 35.2175 63.3448 34.9537 63.3448 34.5994C63.3449 33.9482 63.9267 33.8234 65.7081 34.0906C66.1849 34.1629 66.6442 34.2214 66.7286 34.2214C67.0245 34.2232 66.8774 34.0844 66.4659 33.9744C65.7421 33.7814 65.0934 33.5896 64.9122 33.5154C64.8159 33.4761 64.5362 33.3803 64.2911 33.3035C63.4168 33.0285 63.0465 32.656 63.169 32.1707C63.2644 31.7901 63.5248 31.6466 64.1114 31.6501C64.7294 31.6554 66.2221 31.8353 66.7764 31.9724C67.0271 32.0342 67.1822 32.0363 67.2413 31.9783C67.2999 31.9198 67.1891 31.8545 66.9082 31.782C66.6771 31.7227 66.4088 31.6404 66.3125 31.5994C66.2153 31.558 65.664 31.3831 65.087 31.2087C62.9357 30.5611 62.3303 30.2371 62.3301 29.7371C62.3301 29.0439 62.6754 28.927 64.3282 29.0623C65.0346 29.1191 65.8659 29.2014 66.1749 29.2459C66.4829 29.2895 66.7742 29.3019 66.8223 29.2722C66.8689 29.2432 66.3607 29.0354 65.6915 28.8113C65.0233 28.588 64.3891 28.3576 64.2823 28.3005C63.6169 27.9426 63.692 27.0564 64.3985 26.9246C64.707 26.8671 65.9526 26.9949 66.6895 27.1589C66.8966 27.2051 67.1084 27.2167 67.1602 27.1853C67.246 27.133 67.0833 27.0667 66.2256 26.8084C63.9484 26.124 62.542 25.6645 61.9395 25.407C61.2882 25.1285 61.0651 24.6546 61.3155 24.0837C61.3665 23.9661 61.1888 23.8833 60.2559 23.5876C57.5973 22.746 56.5474 22.4869 55.2168 22.3455ZM71.8965 36.3396C71.7792 36.3658 71.8167 36.4095 72.0469 36.5134C72.4871 36.7132 72.6649 36.6944 72.334 36.4832C72.1792 36.3847 71.9824 36.3197 71.8965 36.3396ZM70.6797 21.9128C70.5566 21.9128 70.4845 21.951 70.5147 21.9998C70.5444 22.0478 70.6673 22.0876 70.7881 22.0876C70.9114 22.0876 70.9828 22.0486 70.9522 21.9998C70.922 21.952 70.8002 21.9129 70.6797 21.9128ZM70.1651 21.738C70.0924 21.738 70.0332 21.7779 70.0332 21.8259C70.0336 21.8737 70.0926 21.9128 70.1651 21.9128C70.2374 21.9127 70.2956 21.8736 70.2959 21.8259C70.2959 21.778 70.2376 21.7382 70.1651 21.738ZM72.5938 8.34839C72.1738 8.28385 72.0997 8.38591 72.4629 8.52905C72.7814 8.65473 72.8567 8.66105 72.7911 8.55542C72.7614 8.50752 72.8049 8.4686 72.8877 8.46851C73.1355 8.46851 72.9912 8.40863 72.5938 8.34839Z" fill="white"/>
<path d="M16.4571 13.0652C20.0218 12.131 23.7165 12.1233 27.3565 13.0408C28.8516 13.418 30.794 14.2113 32.2305 15.032C33.4123 15.7077 34.3165 16.2985 34.3165 16.3972C34.3162 16.4725 34.0779 16.8078 33.5206 17.5164C32.1444 19.265 30.8111 21.5838 29.9874 23.6589C29.8061 24.1155 29.5991 24.6307 29.5274 24.8035L29.3985 25.1199L28.6192 24.5359C26.6433 23.0561 24.4396 22.321 21.9727 22.3201C19.9348 22.3192 18.6478 22.625 16.834 23.5408C14.3942 24.7717 12.6005 26.7957 11.5167 29.5378C10.6299 31.7823 10.7034 35.2584 11.6846 37.4959C12.1976 38.6657 12.3026 38.8504 13.0264 39.8533C14.3026 41.621 16.4215 43.1571 18.4708 43.8015C19.965 44.2721 20.1938 44.3054 21.9288 44.3054C23.5938 44.3054 23.8906 44.2668 25.1241 43.8914C26.4801 43.4776 27.5947 42.8978 28.7188 42.0222C28.9865 41.8137 29.2652 41.6433 29.337 41.6433C29.4219 41.6439 29.5966 41.977 29.8389 42.6033C30.8019 45.0835 32.1611 47.4208 33.8594 49.5212C34.1297 49.8563 34.3141 50.1632 34.2872 50.2341C34.1988 50.4654 32.6146 51.4304 31.1211 52.1628C29.0509 53.1781 27.6201 53.6271 24.8731 54.1248C24.3164 54.226 21.0068 54.3135 20.1778 54.2498C19.0038 54.1589 17.094 53.806 16.1075 53.4978C12.4088 52.3411 9.72245 50.7369 7.08306 48.1082C5.27271 46.3063 4.14079 44.7447 3.06841 42.5691C2.13872 40.686 1.65069 39.2296 1.22173 37.0593C0.728073 34.5636 0.783899 31.3712 1.36333 28.8972C1.86757 26.747 2.18838 25.8352 3.08306 24.0115C4.59841 20.9263 6.87647 18.2703 9.80474 16.1785C11.741 14.7959 14.1463 13.6702 16.4571 13.0652Z" fill="white"/>
<path fill-rule="evenodd" clip-rule="evenodd" d="M97.835 11.2058C98.087 11.0409 98.1815 11.0627 100.278 11.7478C101.63 12.1894 101.856 12.3499 101.781 12.8152C101.752 12.993 101.654 13.1987 101.564 13.2732C101.416 13.3937 100.29 13.5737 99.2286 13.6462C98.8321 13.6733 98.8814 13.6999 99.7979 13.9636C102.008 14.5991 103.028 14.9542 103.316 15.1873C103.578 15.3986 103.579 15.9105 103.32 16.1697C103.149 16.3399 103.047 16.3573 102.274 16.3425C101.802 16.3346 101.14 16.2835 100.803 16.2302C100.465 16.1771 100.091 16.1496 99.9707 16.1697C99.7144 16.2133 99.7533 16.2328 100.663 16.5095C101.515 16.7688 101.811 17.0162 101.811 17.4685C101.811 17.7006 101.752 17.8693 101.625 17.9959C101.45 18.1694 101.381 18.1779 100.508 18.1238C99.9971 18.0924 99.4008 18.0296 99.1846 17.9851C98.6145 17.8672 97.0379 17.6345 96.8077 17.6345C96.4852 17.6346 96.7351 17.7718 97.3467 17.9324C97.6592 18.0136 98.014 18.1138 98.1348 18.1531C98.2562 18.1935 98.6496 18.3135 99.0098 18.4216C100.344 18.8221 102.035 19.401 102.267 19.5369C102.808 19.8546 102.771 20.5807 102.201 20.8181C101.952 20.9211 101.757 20.9146 100.747 20.7732C100.104 20.6824 99.4418 20.568 99.2735 20.5183C98.9435 20.4214 98.6308 20.4044 98.6036 20.4734C98.5756 20.401 98.4491 20.3429 98.3213 20.3455L98.0909 20.3494L98.3536 20.4685C98.4972 20.5346 98.6233 20.5916 98.6348 20.5964C98.6427 20.599 98.6369 20.5673 98.6211 20.5193C98.6623 20.5603 98.7796 20.6125 98.8995 20.6404C99.7281 20.8315 101.661 21.5246 101.85 21.697C102.145 21.9701 102.216 22.2966 102.038 22.5671C101.874 22.8167 101.316 23.0781 101.115 23.0007C101.041 22.9719 100.704 22.9148 100.367 22.8738C99.4284 22.7603 97.0532 22.3307 95.4415 21.9832C95.1885 21.9291 94.9611 21.9051 94.9366 21.9304C94.9112 21.9559 94.9306 22.0816 94.9805 22.2107C95.1081 22.5476 94.8962 23.0226 94.5821 23.1013C94.2582 23.1825 91.8618 23.0071 91 22.8386C90.1715 22.6772 90.168 22.6767 90.168 22.7751C90.168 22.8179 90.2568 22.8728 90.3653 22.8972C90.8197 22.9997 93.8891 23.9272 94.9405 24.2791C96.1948 24.698 96.5586 24.9465 96.5586 25.3855C96.5586 25.5357 96.4698 25.7365 96.3438 25.8718C96.1644 26.0647 96.053 26.1033 95.6749 26.1033C95.1908 26.1032 94.5901 26.0175 93.1836 25.7478C92.2029 25.5604 92.0941 25.5498 92.0938 25.6472C92.0938 25.6847 92.2813 25.7679 92.5098 25.8308C92.7382 25.8936 93.1966 26.0455 93.5284 26.1677C94.0668 26.3658 94.1454 26.4244 94.2618 26.7195C94.3475 26.9384 94.4626 27.0682 94.6026 27.1033C94.8144 27.1565 95.6464 27.2464 97.4776 27.4158C98.0072 27.4647 98.7749 27.5423 99.1846 27.5886C99.5941 27.6357 100.156 27.6735 100.435 27.6736C101.417 27.6754 101.895 28.0813 101.611 28.6755C101.417 29.0815 101.14 29.1212 99.4571 28.9832C98.7055 28.9213 97.8752 28.8546 97.6094 28.8328C97.0729 28.79 97.0933 28.8947 97.6524 29.0544C99.1256 29.4743 99.7049 29.6431 100.585 29.9128C102.611 30.5335 102.949 30.7198 102.949 31.2156C102.949 31.3701 102.874 31.5894 102.782 31.7029C102.639 31.8774 102.545 31.906 102.154 31.8894C101.758 31.8728 101.666 31.902 101.483 32.0984C101.277 32.321 101.251 32.3253 100.513 32.2703C100.095 32.2388 99.6356 32.1886 99.4913 32.1589C98.8952 32.0359 99.4633 32.3028 100.623 32.6912C102.017 33.1565 102.117 33.2012 102.446 33.5076C102.77 33.8087 102.764 34.1585 102.431 34.491C102.235 34.6856 102.096 34.7455 101.84 34.7429C101.383 34.7393 99.3641 34.402 98.7032 34.2195C98.0633 34.0425 97.9593 34.0268 97.959 34.1043C97.959 34.1469 98.2648 34.2761 98.6377 34.3914C99.5251 34.6654 100.189 34.9613 100.409 35.1804C100.78 35.5505 100.571 36.2448 100.032 36.4343C99.8478 36.4998 98.882 36.3516 97.0401 35.9753C96.319 35.8281 95.652 35.7072 95.5567 35.7068C95.2459 35.7068 95.5374 35.8537 96.1651 36.0134C96.5012 36.0997 96.8138 36.2036 96.8604 36.2439C96.9059 36.2841 97.0094 36.3171 97.0899 36.3171C97.2878 36.3171 98.1222 36.6596 98.419 36.863C98.6186 36.9992 98.6592 37.092 98.6592 37.4011C98.6592 37.9728 98.4547 38.1098 97.6163 38.0984C97.2461 38.0932 96.749 38.0463 96.5108 37.9939C96.2727 37.9416 95.5054 37.7956 94.8077 37.6707C94.11 37.545 93.4005 37.4076 93.2315 37.364C93.0622 37.3212 92.591 37.2206 92.1817 37.1404C91.772 37.061 91.2796 36.9627 91.087 36.9226C90.4702 36.7926 90.3704 36.8161 90.3135 37.1003C90.2076 37.6259 89.8944 37.7725 88.9971 37.7175C88.5565 37.6906 88.6466 37.8517 89.1426 37.9783C89.7651 38.1372 90.6357 38.4158 90.9229 38.5476C91.2632 38.704 91.4422 39.094 91.3301 39.4343C91.1655 39.9309 90.6824 39.9995 88.3301 39.8582C86.9163 39.7735 86.9074 39.8519 88.2862 40.2439C89.9371 40.7127 91.3757 41.2108 91.6084 41.3933C91.7781 41.5259 91.8311 41.6482 91.8311 41.9011C91.8311 42.369 91.6076 42.6105 91.127 42.6638C90.7357 42.7063 87.9143 42.3402 87.2207 42.157C87.0197 42.1037 86.8035 42.0799 86.7393 42.1033C86.7017 42.1173 86.6668 42.1243 86.6641 42.1365C86.6602 42.1654 86.8299 42.224 87.5284 42.4675C87.6124 42.4972 87.7049 42.5283 87.8047 42.5632C89.0922 43.0128 89.4606 43.4231 89.0704 43.9783C88.8524 44.289 88.4068 44.354 87.1456 44.2625C85.7222 44.1586 85.1198 44.1533 85.2266 44.2468C85.3213 44.3298 86.1936 44.6111 86.3555 44.6111C86.4142 44.6111 86.6951 44.6854 86.9795 44.7771C87.2649 44.8679 87.9712 45.0871 88.5489 45.2634C90.9583 45.9992 91.2187 46.1416 91.2188 46.7185C91.2188 47.3235 90.6544 47.5765 89.5733 47.4578C89.2982 47.4281 88.6795 47.3791 88.1983 47.3503C87.1961 47.2893 87.1731 47.3703 88.1104 47.6609C89.2625 48.018 89.6363 48.2691 89.6407 48.6882C89.6433 49.0042 89.4516 49.3268 89.2266 49.3826C89.0204 49.4339 87.6797 49.3724 86.7979 49.2712C86.3094 49.2153 86.3331 49.3313 86.8418 49.4832C89.4074 50.2479 89.8488 50.4345 89.9766 50.7986C90.0911 51.1284 90.0112 51.4851 89.7881 51.6414C89.5746 51.7906 88.7964 51.805 87.8047 51.6785C86.629 51.5283 85.9018 51.4847 85.9141 51.5632L85.9131 51.5603C85.8454 51.385 85.2664 51.2437 85.2657 51.4021C85.2657 51.4405 85.3932 51.5145 85.5499 51.5652C85.9429 51.6944 85.9652 51.6966 85.917 51.5691C85.9179 51.5717 85.9194 51.5735 85.9219 51.5759C85.97 51.6257 86.4124 51.7854 86.9043 51.9304C88.0651 52.2743 88.3962 52.4372 88.5538 52.741C88.6665 52.9582 88.6679 53.0281 88.5577 53.2898C88.4885 53.454 88.3419 53.6376 88.2325 53.696C87.9968 53.8217 86.9129 53.7747 85.0215 53.5574C84.3335 53.4779 83.7127 53.4347 83.6426 53.4617C83.5725 53.4888 83.5147 53.5905 83.5147 53.6882C83.5145 53.786 83.4361 53.9438 83.3399 54.0398C83.1131 54.2659 82.7779 54.2526 81.8956 53.9812C81.5104 53.8625 80.9292 53.6888 80.6045 53.5945C80.2797 53.5002 79.7281 53.338 79.379 53.2341C78.3523 52.9277 77.9874 52.3851 78.4766 51.8962C78.6692 51.7051 78.7657 51.6825 79.3741 51.6843C79.7497 51.6851 80.3103 51.7228 80.6202 51.7673C80.9289 51.8118 81.2211 51.8245 81.2686 51.7957C81.3465 51.7477 80.7439 51.5179 80.0567 51.3328C79.2127 51.1067 77.9104 50.6793 77.6338 50.5388C77.0466 50.2412 76.8635 49.7187 77.2149 49.3425C77.3689 49.1776 77.4875 49.1511 78.0684 49.1511C78.6785 49.1511 79.1408 49.1947 80.7393 49.406C81.3016 49.4801 81.4844 49.3878 81.043 49.2517C80.8863 49.2037 80.3439 49.0403 79.8379 48.8884C77.8278 48.2853 77.2959 48.0512 77.1329 47.696C76.9806 47.3608 77.0184 47.1518 77.2774 46.9109C77.5103 46.6944 77.5453 46.6882 78.3497 46.7371C78.8066 46.765 79.4478 46.8141 79.7725 46.8464C80.3998 46.9093 80.4918 46.8497 80.1885 46.5759C80.0799 46.4781 80.0127 46.3064 80.0127 46.1257C80.0128 45.9494 80.0835 45.7637 80.1885 45.6589C80.3469 45.501 80.4799 45.4842 81.6104 45.4851C82.2968 45.4851 83.1916 45.524 83.5997 45.571C84.0076 45.6173 84.3738 45.623 84.4131 45.5837C84.4521 45.5445 84.1781 45.4236 83.8028 45.3171C83.4285 45.2099 83.0236 45.0909 82.9024 45.0505C82.7816 45.0112 82.3871 44.8927 82.0264 44.7888C81.666 44.6841 81.2723 44.5663 81.1514 44.5252C81.0306 44.4851 80.4675 44.3055 79.8985 44.1257C78.6318 43.725 78.2994 43.4733 78.3799 42.9783C78.4727 42.4087 78.5245 42.3916 80.1651 42.4099C80.9722 42.4195 81.9229 42.4709 82.2774 42.5232C82.6947 42.5851 82.9518 42.5879 83.0069 42.533C83.0609 42.4777 82.4642 42.2425 81.3125 41.864C78.6173 40.9798 78.1341 40.682 78.3477 40.0369C78.4046 39.8633 78.524 39.6828 78.6133 39.6345C78.812 39.529 79.7551 39.5239 80.2315 39.6277C80.4241 39.6696 80.838 39.7256 81.1514 39.7527L81.7198 39.8015L81.3262 39.6209C81.1101 39.5214 80.844 39.36 80.7354 39.2605C80.4772 39.0248 80.4718 38.5665 80.7247 38.3142C80.9041 38.1353 80.9673 38.1303 82.5225 38.1687C83.4093 38.1914 84.1506 38.1847 84.169 38.155C84.1855 38.1251 83.8394 38.0118 83.3995 37.9021C82.5898 37.7022 81.8186 37.4933 81.4141 37.365C81.2932 37.3266 80.9691 37.2295 80.6934 37.1492C79.9267 36.9231 79.6243 36.6862 79.5909 36.283C79.5699 36.0318 79.6121 35.8971 79.7598 35.741C79.9874 35.4983 80.4953 35.4677 81.6377 35.6257C82.5052 35.7461 82.6366 35.6245 81.9082 35.3748C80.9946 35.0624 80.7325 34.9342 80.5879 34.7283C80.4102 34.476 80.4128 34.1389 80.5957 33.8796C80.7375 33.6772 80.7622 33.675 81.7022 33.7283C82.2308 33.7588 82.786 33.8218 82.9366 33.8689C83.2578 33.9703 84.592 34.2224 84.8038 34.2224C85.03 34.2223 84.8274 34.0903 84.4336 33.9812C83.5941 33.7481 82.4241 33.3813 81.3291 33.0085C80.4012 32.6925 80.0793 32.5398 79.8184 32.2927C79.424 31.9184 79.3875 31.6087 79.7022 31.2937C79.886 31.1104 79.9994 31.0798 80.4844 31.0798C81.0663 31.0798 81.1471 31.0922 82.9668 31.4753C84.0095 31.6944 84.5924 31.6911 83.8985 31.4695C83.712 31.4101 83.0857 31.2137 82.5079 31.0339C81.2405 30.6385 80.7474 30.425 80.4288 30.1326C80.1163 29.8463 80.1055 29.4416 80.4014 29.1648C80.5973 28.9818 80.67 28.9697 81.3418 29.0125C81.7416 29.0377 82.2474 29.0959 82.4639 29.1404C83.1379 29.2809 84.494 29.5812 85.1348 29.7322C86.0172 29.9398 86.439 29.9863 86.3663 29.8679C86.3413 29.8273 86.256 29.7919 86.1563 29.7771L85.9512 29.7634C85.8535 29.7516 85.7727 29.7245 85.753 29.6931C85.7267 29.6504 85.5966 29.5967 85.4639 29.574C85.0568 29.5033 83.2434 28.9033 82.6954 28.658C82.2988 28.4808 82.1508 28.3609 82.0606 28.1453C81.8979 27.7576 82.039 27.3692 82.3838 27.2488C82.6702 27.1492 83.5184 27.2293 84.5215 27.4519C85.2357 27.6099 85.3535 27.6171 85.3536 27.5037C85.3536 27.4583 85.0679 27.3372 84.7188 27.2351C83.9476 27.0107 82.7237 26.6064 81.8956 26.3044C80.8714 25.9299 80.5631 25.468 80.9825 24.9363C81.147 24.7286 81.2194 24.706 81.7481 24.7087C82.0701 24.7104 82.6083 24.7506 82.9454 24.7986C84.1876 24.9741 84.5654 24.9963 84.5655 24.8933C84.5655 24.8383 84.4996 24.7937 84.42 24.7937C84.3391 24.7936 83.7183 24.6096 83.0411 24.3835C81.3945 23.8371 81.0203 23.4596 81.5079 22.8406C81.6697 22.6357 81.7498 22.6111 82.2442 22.6111C82.55 22.6112 83.3246 22.6945 83.9668 22.7966C85.6817 23.0677 85.7908 23.0783 85.7911 22.9705C85.7911 22.9173 85.7103 22.8728 85.6114 22.8728C85.1411 22.8727 82.8458 22.0392 82.5762 21.7712C82.3313 21.5258 82.3162 21.1328 82.542 20.8552C82.6995 20.6606 82.7538 20.6532 83.7315 20.6707C84.2944 20.6812 85.2066 20.7487 85.7588 20.821C85.8375 20.8306 85.9102 20.8406 85.9776 20.8494C86.6681 20.94 86.8216 20.9601 86.8321 20.9304C86.8353 20.9218 86.8267 20.9096 86.8155 20.8933C86.812 20.8881 86.8082 20.8818 86.8038 20.8748C86.7775 20.8329 86.6078 20.7713 86.4268 20.739C85.8316 20.6316 84.5276 20.1519 84.2383 19.9353C83.7174 19.5451 83.7742 18.9593 84.3555 18.7166C84.6179 18.6075 84.7835 18.6011 85.3399 18.6814C86.3423 18.8254 86.86 18.9167 88.0918 19.1638C89.2636 19.3985 89.7004 19.3774 88.9717 19.1218C87.9194 18.7516 87.629 18.5149 87.629 18.0251C87.629 17.4927 87.7758 17.416 88.7598 17.4265C89.5694 17.4352 90.0919 17.5036 91.1221 17.7332C91.3847 17.7917 91.5366 17.7891 91.5997 17.7263C91.6631 17.6629 91.6535 17.6346 91.5674 17.6345C91.4343 17.6345 90.3278 17.3173 90.0362 17.1951C89.9392 17.1539 89.506 17.019 89.0733 16.8933C87.882 16.5477 87.1439 16.2524 86.8926 16.0193C86.6188 15.7661 86.5951 15.3839 86.834 15.0906C86.9915 14.8977 87.0563 14.8855 87.8301 14.9021C88.2855 14.9125 89.2238 15.005 89.9161 15.1072L90.0577 15.1287C91.5082 15.3434 91.8677 15.3967 91.8887 15.3347C91.8957 15.3139 91.8664 15.2816 91.8272 15.238C91.8237 15.2336 91.819 15.2288 91.8155 15.2244C91.4724 14.8385 91.4494 14.2403 91.7706 14.0369C91.9316 13.9348 93.6962 13.9574 94.379 14.0691C95.1246 14.1921 95.3424 14.078 94.8155 13.8406C94.244 13.5829 94.1578 12.9458 94.6514 12.6238C94.8127 12.5198 96.5886 12.3208 97.46 12.3103C97.4977 12.3094 97.5043 12.1757 97.4737 12.0134C97.409 11.6677 97.5252 11.4084 97.835 11.2058ZM86.7979 47.238L87.0606 47.3582C87.4043 47.5152 87.4258 47.5155 87.4258 47.3611C87.4258 47.2687 87.3334 47.2307 87.1114 47.2341L86.7979 47.238ZM94.419 35.3572C94.3439 35.3572 94.2826 35.3963 94.2823 35.4441C94.2823 35.492 94.319 35.5317 94.3643 35.532C94.4099 35.532 94.4712 35.4922 94.501 35.4441C94.5306 35.3962 94.4942 35.3572 94.419 35.3572ZM95.5957 14.1531C95.5948 14.0528 95.1664 13.9714 95.1114 14.0603C95.088 14.0977 95.1186 14.1482 95.1788 14.1726C95.3617 14.246 95.5957 14.2352 95.5957 14.1531Z" fill="white"/>
</g>
<path id="Vector_4" d="M73.4112 3.29213L72.8991 3.27292C71.5667 3.22403 71.1299 3.24324 71.4109 3.36371C70.8436 3.18911 70.5845 3.05467 70.8261 3.05641C70.8962 3.05729 71.5046 3.11578 72.1786 3.18737C72.5831 3.23014 73.0392 3.26856 73.4112 3.29213ZM65.5683 34.0703C65.7478 34.0895 65.9351 34.0913 66.0384 34.0712C66.2792 34.024 66.2704 34.0144 65.8196 33.8197C65.7504 33.7901 65.6786 33.7613 65.6086 33.7359C65.8599 33.8093 66.1566 33.8913 66.4665 33.9743C66.878 34.0843 67.025 34.2231 66.7292 34.2213C66.6451 34.2213 66.1855 34.1628 65.7084 34.0904C65.6611 34.0834 65.6139 34.0764 65.5683 34.0703ZM66.0209 8.55467C68.2042 8.73364 68.1797 8.64546 66.0507 8.02824C66.5803 8.18189 67.1117 8.33991 67.2325 8.37919C67.3533 8.41935 67.6405 8.50054 67.8716 8.55991C68.5894 8.74499 68.1937 8.8253 67.2281 8.69086C66.8972 8.64546 66.435 8.59395 66.0209 8.55467ZM92.4123 23.0153C92.0271 22.9865 91.5972 22.9516 91.1315 22.9114C90.6842 22.8721 90.6658 22.8782 90.8689 22.9909C90.9354 23.0275 91.1779 23.1131 91.5036 23.2178C90.9503 23.0546 90.5152 22.9306 90.3655 22.8974C90.257 22.873 90.1685 22.818 90.1685 22.7752C90.1685 22.6766 90.1712 22.6766 91.0002 22.8381C91.3206 22.9009 91.8529 22.9647 92.4123 23.0153ZM83.8147 34.0651C84.024 34.0982 84.1815 34.1105 84.2043 34.0878C84.2857 34.0074 84.0424 33.894 83.2527 33.6451C82.2793 33.3378 81.5789 33.1065 81.0685 32.9188C81.15 32.9467 81.2366 32.9773 81.3294 33.0087C82.4246 33.3815 83.595 33.7482 84.4345 33.9813C84.8285 34.0904 85.0307 34.2222 84.804 34.2222C84.6893 34.2222 84.2472 34.1489 83.8147 34.0651ZM65.5298 6.0657C65.0203 6.01157 64.6553 5.98189 64.3892 5.98625C64.6395 5.98189 64.9774 6.00721 65.4388 6.0561C66.0647 6.12157 66.6066 6.14776 66.6442 6.11459C66.6819 6.08054 66.5567 5.98276 66.365 5.89633C66.2153 5.82911 66.091 5.7584 65.9903 5.68244C66.1811 5.80641 66.4622 5.90943 66.8631 6.01856C67.0811 6.07705 67.2141 6.15737 67.1817 6.21062C67.1502 6.26038 67.0408 6.27784 66.9384 6.24903C66.8351 6.2211 66.2013 6.13816 65.5298 6.0657ZM94.2646 25.946C94.2235 25.9399 94.1859 25.9347 94.1517 25.9286C93.0504 25.7548 92.6197 25.7269 92.6197 25.829C92.6197 25.8421 92.6232 25.8544 92.6302 25.8657C92.5856 25.8526 92.5453 25.8404 92.5103 25.8308C92.2818 25.7679 92.0945 25.685 92.0945 25.6474C92.0945 25.5497 92.2021 25.5601 93.1844 25.7478C93.6133 25.8299 93.9661 25.8954 94.2646 25.946ZM69.8343 16.6894C69.6119 16.6432 69.4237 16.6004 69.3309 16.5733C69.1611 16.5244 68.9046 16.5 68.7619 16.5192C68.5807 16.5436 68.5238 16.5602 68.7059 16.6283C67.9775 16.4074 67.9329 16.3813 67.9329 16.349C67.9329 16.2713 68.8696 16.4048 69.2241 16.5323C69.3327 16.5716 69.5655 16.6309 69.8343 16.6894ZM60.8901 50.8715C60.1372 50.7178 59.8518 50.6951 59.9088 50.7868C59.9184 50.8034 59.956 50.827 60.0112 50.8549C59.8702 50.8069 59.7415 50.7685 59.6374 50.7458C59.5279 50.7213 59.4176 50.6663 59.3914 50.6244C59.3108 50.4952 59.7424 50.538 60.329 50.7178C60.4892 50.7659 60.6782 50.8182 60.8901 50.8715ZM85.8527 20.8336C86.3307 20.8624 86.1547 20.6957 85.3432 20.4251C85.0438 20.3255 84.7917 20.2251 84.5851 20.1221C85.0981 20.3552 85.9709 20.6555 86.427 20.7385C86.6082 20.7708 86.778 20.8328 86.8043 20.8747C86.8087 20.8817 86.8122 20.8878 86.8157 20.893C86.8271 20.9096 86.8358 20.9218 86.8323 20.9305C86.8218 20.9602 86.6686 20.9401 85.9779 20.8494L85.8527 20.8336ZM74.9467 34.6386C74.7112 34.6151 74.502 34.5906 74.3672 34.5714C72.8606 34.3497 72.5735 34.3636 73.455 34.6692C72.9692 34.5155 72.5682 34.3977 72.5069 34.3968C72.4465 34.3968 72.3975 34.3532 72.3975 34.299C72.3975 34.2371 72.4842 34.2231 72.6382 34.2615C73.2335 34.4073 74.1011 34.547 74.9467 34.6386ZM98.7039 34.2196C98.9131 34.2772 99.2598 34.3505 99.6494 34.4239C99.3841 34.3759 99.1101 34.3244 98.8352 34.2702C98.5428 34.2126 98.5367 34.2161 98.7039 34.3505C98.7617 34.3977 98.8492 34.4474 98.9359 34.4867C98.8396 34.4553 98.7407 34.423 98.6382 34.3916C98.2653 34.2763 97.9598 34.1471 97.9598 34.1044C97.9598 34.0267 98.0631 34.0424 98.7039 34.2196ZM89.2914 42.4949C88.5184 42.3989 87.7235 42.2836 87.3803 42.2059C87.2455 42.1754 87.1869 42.1946 87.2096 42.2618C87.228 42.3186 87.5773 42.4809 87.9844 42.6232C88.5201 42.8101 88.8799 43.0109 89.0646 43.2282C88.8598 43.0013 88.4466 42.7874 87.8049 42.563C87.7051 42.5281 87.6132 42.4967 87.5292 42.467C86.8279 42.2225 86.6599 42.1649 86.6651 42.1361C86.6677 42.1239 86.7019 42.1169 86.7395 42.1029C86.8034 42.0794 87.0197 42.1038 87.221 42.1571C87.5677 42.2487 88.4483 42.3858 89.2914 42.4949ZM83.9671 22.7962C83.3525 22.6984 82.6172 22.6181 82.2871 22.612C82.618 22.6181 83.37 22.6958 84.003 22.7901C85.3572 22.9909 85.703 22.9856 85.0867 22.7691C85.3213 22.8337 85.5104 22.873 85.612 22.873C85.7109 22.873 85.7914 22.9167 85.7914 22.9699C85.7914 23.0782 85.6846 23.0677 83.9671 22.7962ZM57.8892 52.291C57.8358 52.2797 57.7841 52.2683 57.7342 52.257C57.012 52.0946 56.9901 52.0928 56.9901 52.2063C56.9901 52.2186 56.9936 52.2299 56.9988 52.2404C56.956 52.2264 56.9122 52.2124 56.8675 52.1993C56.6461 52.1347 56.4648 52.0501 56.4648 52.0125C56.4648 51.9139 56.7975 51.9287 57.0006 52.037C57.1065 52.0937 57.4331 52.1863 57.8892 52.291ZM99.9295 20.6468C99.0506 20.5202 98.8641 20.501 98.8501 20.5403C98.8466 20.5517 98.8562 20.5665 98.8685 20.5857L98.8711 20.5901C98.8834 20.6101 98.9017 20.6293 98.9219 20.6451C98.9149 20.6433 98.907 20.6416 98.9 20.6398C98.7801 20.6119 98.6628 20.5604 98.6216 20.5193C98.6164 20.5054 98.6111 20.4897 98.6041 20.4731C98.6312 20.4041 98.9438 20.4216 99.2738 20.5185C99.3675 20.5464 99.6161 20.5944 99.9295 20.6468ZM70.5153 22C70.4847 21.9511 70.5565 21.9127 70.6799 21.9127C70.8007 21.9127 70.9233 21.952 70.9531 22C70.9837 22.0489 70.9119 22.0873 70.7885 22.0873C70.6677 22.0873 70.5451 22.048 70.5153 22ZM85.8553 29.8842C85.8982 29.8842 85.9333 29.8781 85.9534 29.8659C85.9972 29.8388 85.9727 29.8004 85.8755 29.7506C85.9271 29.7628 85.9902 29.7698 86.0541 29.7698C86.1933 29.7698 86.3333 29.8135 86.3666 29.8676C86.4165 29.947 86.2423 29.9523 85.8553 29.8842ZM80.9556 28.9928C81.0283 28.9867 81.1071 28.9841 81.1911 28.9841C81.5194 28.9841 81.9308 29.0199 82.1042 29.0636C82.1602 29.0775 82.2337 29.095 82.3151 29.1142C82.0621 29.0749 81.6682 29.033 81.3426 29.0121C81.1832 29.0016 81.0572 28.9946 80.9556 28.9928ZM74.0923 3.31745C74.5493 3.31395 74.6342 3.28165 74.8469 3.07125L74.5817 3.33491L74.0923 3.31745ZM84.3558 18.7166C83.8699 18.9191 83.7508 19.3617 84.0283 19.7293C83.8393 19.5119 83.8209 19.2788 83.9601 19.0186C84.0502 18.8501 84.2113 18.7384 84.4442 18.6834C84.4153 18.693 84.3864 18.7043 84.3558 18.7166ZM82.5769 21.7713C82.7082 21.9013 83.3131 22.1632 83.9566 22.3998C83.1739 22.1309 82.738 21.931 82.5769 21.7713ZM63.3745 51.3892C64.3716 51.5647 65.2436 51.6808 65.4563 51.6415C65.2164 51.686 64.4592 51.5917 63.3745 51.3892ZM65.2252 33.6207C65.2033 33.6172 65.1849 33.6146 65.1709 33.6146C65.072 33.6128 64.9538 33.5779 64.9083 33.5378C64.8811 33.5133 64.7787 33.4679 64.6439 33.4182C64.763 33.4583 64.8628 33.4941 64.9127 33.5151C64.9713 33.5395 65.0799 33.5753 65.2252 33.6207ZM85.7573 29.6974C85.6417 29.6502 85.4789 29.5952 85.2662 29.5297L85.2163 29.5149C85.3222 29.5428 85.4071 29.5638 85.464 29.5734C85.5971 29.5961 85.7275 29.6502 85.7538 29.693C85.7547 29.6939 85.7564 29.6956 85.7573 29.6974ZM85.1349 29.7323C84.7996 29.6528 84.2691 29.5332 83.7421 29.4171C84.5597 29.5909 85.3012 29.7576 85.5595 29.8266C85.4325 29.8004 85.2907 29.769 85.1349 29.7323ZM85.4281 20.783C84.888 20.7263 84.1929 20.6791 83.7316 20.6704C83.7482 20.6713 83.7648 20.6713 83.7824 20.6713C84.3733 20.6826 85.1077 20.7315 85.415 20.7804L85.4281 20.783ZM64.4075 33.9594C64.7209 33.9551 65.0737 33.9821 65.3941 34.0441C65.4055 34.0467 65.4178 34.0485 65.43 34.0511C65.0203 33.9952 64.6833 33.9638 64.4075 33.9594ZM92.7011 23.5767C93.4312 23.7897 94.0694 23.9878 94.6008 24.1668C94.1018 24.0062 93.3962 23.7879 92.7011 23.5767ZM92.9261 25.9591C93.0758 25.9984 93.3034 26.0735 93.5267 26.159C93.8199 26.2708 93.9775 26.3397 94.0791 26.4279C93.9784 26.3415 93.8217 26.2751 93.5293 26.1678C93.3463 26.1005 93.1257 26.0246 92.9261 25.9591ZM99.1819 20.7123C99.518 20.7882 100.274 21.0432 100.899 21.2789C100.348 21.0737 99.6712 20.8476 99.1819 20.7123ZM80.1931 29.542C80.2124 29.3525 80.2929 29.2163 80.4444 29.1255C80.4304 29.1378 80.4164 29.1509 80.4015 29.1648C80.2833 29.2757 80.2141 29.4067 80.1931 29.542ZM73.9382 19.2116C73.8463 19.5206 73.5837 19.7301 73.2554 19.7301C73.5846 19.7301 73.8376 19.4962 73.9382 19.2116ZM60.4962 51.04C60.7343 51.122 61.0398 51.2705 61.2289 51.3953C61.0564 51.2905 60.7824 51.1587 60.4962 51.04ZM96.3333 25.884C96.1757 26.0543 96.1214 26.1049 95.8492 26.0988C96.0881 26.0857 96.1914 26.0342 96.3333 25.884ZM80.7228 30.3478C80.3621 30.1417 80.2124 29.9427 80.1914 29.7C80.2106 29.8536 80.2903 30.0047 80.4295 30.1321C80.5118 30.2081 80.6063 30.2788 80.7228 30.3478ZM64.4478 35.5876C64.9774 35.7736 65.8511 36.0599 66.9463 36.4065C65.7049 36.0136 64.9389 35.7657 64.4478 35.5876ZM99.1425 34.5583C99.3473 34.6151 99.6266 34.7303 99.8735 34.8525C99.6704 34.7565 99.4235 34.657 99.1425 34.5583ZM63.617 35.1947C63.5768 35.1624 63.5435 35.1293 63.512 35.0952C63.3815 34.9521 63.3281 34.7382 63.3474 34.54C63.3465 34.5592 63.3456 34.5793 63.3456 34.5994C63.3456 34.8377 63.4358 35.0359 63.617 35.1947ZM72.9683 18.0077C72.9963 18.019 73.0252 18.0304 73.0541 18.0426C73.3307 18.1561 73.5303 18.2565 73.6721 18.3613C73.5233 18.2609 73.2808 18.1404 72.9683 18.0077ZM72.1139 3.57498C72.5813 3.71118 73.1118 3.88054 73.5522 4.03157C73.174 3.90411 72.6908 3.75046 72.1139 3.57498ZM65.4265 8.50578C64.8916 8.47086 64.6763 8.46387 64.5283 8.51451C64.6658 8.45951 64.8645 8.46213 65.4265 8.50578ZM75.507 35.4174C75.6462 35.5099 75.7153 35.6059 75.7793 35.7378C75.725 35.6269 75.6199 35.5055 75.507 35.4174ZM74.3497 34.9608C74.7025 35.0743 74.9607 35.1624 75.1542 35.241C74.9599 35.1677 74.6692 35.0673 74.3497 34.9608ZM57.1923 52.3067C57.307 52.3347 57.4681 52.4063 57.6239 52.4936C57.4978 52.4281 57.3525 52.3652 57.1923 52.3067ZM96.1328 24.7683C96.2466 24.8294 96.3236 24.8827 96.3621 24.9263C96.3805 24.9473 96.3972 24.9682 96.4129 24.9901C96.3464 24.9141 96.2553 24.8417 96.1328 24.7683ZM82.0613 28.1451C82.0823 28.1958 82.1068 28.2412 82.1374 28.2831C82.0919 28.229 82.0621 28.1731 82.0411 28.1146C82.0052 28.0116 81.9904 27.9094 81.9939 27.8125C81.9921 27.919 82.014 28.0325 82.0613 28.1451ZM83.1197 33.9175C83.0435 33.8992 82.9805 33.8826 82.9367 33.8686C82.7861 33.8215 82.2311 33.7586 81.7024 33.7281C82.2311 33.7586 82.7861 33.8206 82.9367 33.866C82.9936 33.8835 83.0558 33.9009 83.1197 33.9175ZM71.6096 17.0273C71.4459 16.995 71.1036 16.9304 70.7587 16.8667C71.1098 16.9313 71.4503 16.995 71.6096 17.0273ZM71.5378 17.4821C71.8644 17.5878 72.127 17.6794 72.3905 17.779C72.1305 17.682 71.8442 17.5825 71.5378 17.4821ZM63.4953 34.1742C63.512 34.1559 63.5295 34.1393 63.5479 34.1236C63.5776 34.0991 63.6197 34.0773 63.6713 34.059C63.6004 34.0895 63.5417 34.1279 63.4953 34.1742ZM64.0495 9.23125C64.0539 9.32816 64.0793 9.42506 64.1257 9.51673C64.0775 9.42506 64.053 9.32816 64.0495 9.23125ZM76.5374 34.7364C76.6941 34.7216 76.758 34.6753 76.8499 34.5836C76.7571 34.6762 76.6958 34.7216 76.5374 34.7364ZM96.5066 25.6169C96.4838 25.6736 96.4532 25.7304 96.4147 25.7854C96.4514 25.7321 96.483 25.6745 96.5066 25.6169Z" fill="white"/>
</g>
</g>
</g>
</g>
<defs>
<clipPath id="clip0_0_1">
<rect width="104" height="77" fill="white"/>
</clipPath>
</defs>
</svg>
